<?xml version="1.0" encoding="utf-8"?>
<!-- Generator: Adobe Illustrator 27.5.0, SVG Export Plug-In . SVG Version: 6.00 Build 0)  -->
<svg version="1.1" id="Warstwa_1" xmlns="http://www.w3.org/2000/svg" xmlns:xlink="http://www.w3.org/1999/xlink" x="0px" y="0px"
	 viewBox="0 0 22 22" style="enable-background:new 0 0 22 22;" xml:space="preserve">
<style type="text/css">
	.st0{fill:none;stroke:#343434;stroke-width:2;stroke-linecap:round;stroke-linejoin:round;}
</style>
<path id="Icon_feather-phone" class="st0" d="M21,16v3c0,1.1-0.9,2-2,2c-0.1,0-0.1,0-0.2,0c-3.1-0.3-6.1-1.4-8.7-3.1
	c-2.4-1.5-4.5-3.6-6-6C2.4,9.3,1.3,6.3,1,3.2C0.9,2.1,1.7,1.1,2.8,1C2.9,1,3,1,3,1h3c1,0,1.9,0.7,2,1.7c0.1,1,0.4,1.9,0.7,2.8
	C9,6.3,8.8,7.1,8.3,7.7L7,9c1.4,2.5,3.5,4.6,6,6l1.3-1.3c0.6-0.6,1.4-0.7,2.1-0.5c0.9,0.3,1.9,0.6,2.8,0.7C20.3,14.1,21,15,21,16z"
	/>
</svg>
