<?xml version="1.0" encoding="UTF-8"?><svg id="Warstwa_2" xmlns="http://www.w3.org/2000/svg" viewBox="0 0 324.06 107.36"><defs><style>.cls-1{fill:#4bc8e6;}.cls-1,.cls-2,.cls-3{stroke-width:0px;}.cls-2{fill:#141414;}.cls-3{fill:#fff;}</style></defs><g id="Warstwa_1-2"><path class="cls-1" d="m315.44,0H8.61C3.86,0,0,3.85,0,8.61v62.31c0,4.76,3.86,8.61,8.61,8.61h307.71c4.35-.45,7.74-4.12,7.74-8.57V8.61c0-4.76-3.86-8.61-8.62-8.61ZM46.86,55.51c-1.28,1.81-3.11,3.24-5.43,4.25-2.3,1-5.03,1.51-8.13,1.51s-5.63-.29-7.97-.86c-2.33-.57-4.39-1.24-6.12-1.98-.53-.24-.99-.62-1.37-1.15-.4-.55-.61-1.14-.61-1.77,0-.8.26-1.51.79-2.1.54-.61,1.28-.93,2.19-.93.47,0,.92.09,1.34.28,1.29.57,2.89,1.11,4.78,1.6,1.87.49,4.04.74,6.46.74,1.88,0,3.59-.2,5.07-.59,1.42-.38,2.55-1.02,3.36-1.92.79-.88,1.19-2.09,1.19-3.6,0-1.07-.37-1.91-1.13-2.56-.83-.71-1.97-1.31-3.37-1.79-1.46-.5-3.08-.96-4.81-1.38-1.77-.43-3.55-.91-5.3-1.44-1.78-.54-3.45-1.25-4.96-2.12-1.55-.89-2.81-2.06-3.75-3.47-.95-1.43-1.44-3.25-1.44-5.42,0-2.28.61-4.39,1.81-6.28,1.2-1.89,2.99-3.42,5.34-4.55,2.32-1.12,5.19-1.69,8.53-1.69,2.31,0,4.48.18,6.45.53,1.97.35,3.76.83,5.35,1.43.51.19.96.49,1.36.9.43.46.65,1.12.65,1.97,0,.71-.25,1.39-.74,2.02-.52.67-1.25,1.01-2.18,1.01-.23,0-.45-.04-.67-.12-.14-.05-.27-.09-.4-.13-1.34-.47-2.77-.84-4.31-1.13-1.53-.28-3.19-.43-4.93-.43-2.84,0-5.23.54-7.11,1.61-1.8,1.02-2.68,2.48-2.68,4.45,0,1.28.38,2.27,1.16,3.02.83.79,1.95,1.44,3.34,1.91,1.45.5,3.06.95,4.78,1.35,1.73.4,3.5.87,5.27,1.38,1.78.51,3.45,1.21,4.96,2.06,1.55.88,2.81,2.06,3.76,3.51.95,1.47,1.43,3.39,1.43,5.71s-.65,4.37-1.94,6.19Zm28.55,6.8c-12.43,0-22.51-10.06-22.54-22.49,12.43,0,22.51,10.06,22.54,22.49.03-12.43,10.12-22.49,22.55-22.49-.03,12.43-10.11,22.49-22.55,22.49Zm0-45.09c0,12.45-10.09,22.55-22.54,22.55,0-12.45,10.09-22.55,22.54-22.55s22.55,10.1,22.55,22.55c-12.45,0-22.55-10.1-22.55-22.55Zm103.22,4.54c0,.23-.06.6-.19,1.08l-11.43,35.1c-.36,1.02-.9,1.78-1.62,2.28-.72.49-1.52.74-2.37.74-.91,0-1.74-.3-2.49-.88-.73-.58-1.24-1.3-1.51-2.15l-8.83-27.96-8.83,27.96c-.27.85-.77,1.57-1.51,2.15-1.44,1.14-3.37,1.16-4.86.14-.72-.5-1.27-1.26-1.62-2.27l-11.42-35.09c-.14-.51-.2-.89-.2-1.17-.05-.88.25-1.65.88-2.25.62-.59,1.38-.89,2.27-.89.79,0,1.49.24,2.06.72.56.47.94,1.08,1.13,1.82l9.23,30.31,9.29-30.22c.23-.78.68-1.42,1.35-1.9,1.32-.96,3.14-.96,4.47,0,.67.48,1.12,1.13,1.35,1.91l9.29,30.22,9.23-30.34c.23-.73.62-1.33,1.17-1.79.57-.48,1.25-.72,2-.72.93,0,1.71.3,2.33.89.64.62.91,1.4.82,2.32Zm37.94,36.01c0,.9-.33,1.67-.97,2.28-.63.61-1.41.92-2.3.92s-1.66-.31-2.28-.93c-.62-.61-.93-1.38-.93-2.28v-14.92h-20.92v14.92c0,.9-.32,1.67-.97,2.28-.63.61-1.41.92-2.3.92s-1.66-.31-2.28-.93c-.62-.61-.93-1.38-.93-2.28V21.82c0-.89.31-1.67.92-2.3.62-.64,1.38-.97,2.28-.97s1.67.32,2.31.96c.64.63.96,1.41.96,2.31v14.92h20.92v-14.92c0-.89.31-1.67.92-2.3.62-.64,1.39-.97,2.28-.97s1.67.32,2.31.96c.64.63.96,1.41.96,2.31v35.95Zm17.11,0c0,.9-.32,1.67-.97,2.28-.63.61-1.41.92-2.3.92s-1.66-.31-2.28-.93c-.62-.61-.93-1.38-.93-2.28V21.82c0-.89.31-1.67.92-2.3.62-.64,1.38-.97,2.28-.97s1.67.32,2.31.96c.64.63.96,1.41.96,2.31v35.95Zm38.29-33.66c-.6.57-1.33.86-2.18.86h-11.25v32.8c0,.9-.32,1.67-.97,2.28-.63.61-1.41.92-2.3.92s-1.66-.31-2.28-.93c-.62-.61-.93-1.38-.93-2.28V24.97h-11.3c-.86,0-1.58-.29-2.16-.87-.58-.58-.87-1.3-.87-2.16s.29-1.58.86-2.18c.58-.6,1.31-.91,2.17-.91h29.02c.85,0,1.59.3,2.19.9.6.6.9,1.33.9,2.19s-.31,1.59-.91,2.17Zm29.45,12.57c.86,0,1.59.3,2.19.9.6.6.9,1.33.9,2.19s-.31,1.59-.91,2.17c-.6.57-1.33.86-2.18.86h-18v11.77h20.1c.85,0,1.59.3,2.19.9.6.6.9,1.33.9,2.19s-.31,1.59-.91,2.17c-.6.57-1.33.86-2.18.86h-23.37c-.9,0-1.66-.31-2.28-.93-.62-.61-.93-1.38-.93-2.28V22.11c0-.89.31-1.67.92-2.3.62-.64,1.38-.97,2.28-.97h23.37c.85,0,1.59.3,2.19.9.6.6.9,1.33.9,2.19s-.31,1.59-.91,2.17c-.6.57-1.33.86-2.18.86h-20.1v11.71h18Z"/><path class="cls-3" d="m75.41,17.22c0,12.45-10.09,22.55-22.54,22.55,0-12.45,10.09-22.55,22.54-22.55Z"/><path class="cls-3" d="m97.96,39.77c-12.45,0-22.55-10.1-22.55-22.55,12.46,0,22.55,10.1,22.55,22.55Z"/><path class="cls-3" d="m75.41,62.31c-12.43,0-22.51-10.06-22.54-22.49,12.43,0,22.51,10.06,22.54,22.49Z"/><path class="cls-3" d="m97.96,39.82c-.03,12.43-10.11,22.49-22.55,22.49.03-12.43,10.12-22.49,22.55-22.49Z"/><path class="cls-3" d="m43.61,40.1c-1.51-.85-3.18-1.55-4.96-2.06-1.77-.51-3.54-.97-5.27-1.38-1.72-.4-3.33-.86-4.78-1.35-1.39-.47-2.51-1.12-3.34-1.91-.78-.75-1.16-1.73-1.16-3.02,0-1.97.88-3.42,2.68-4.45,1.88-1.07,4.28-1.61,7.11-1.61,1.74,0,3.4.14,4.93.43,1.54.28,2.97.66,4.31,1.13.13.03.27.07.4.13.22.08.44.12.67.12.92,0,1.66-.34,2.18-1.01.49-.63.74-1.31.74-2.02,0-.85-.22-1.51-.65-1.97-.39-.41-.85-.72-1.36-.9-1.58-.59-3.38-1.07-5.35-1.43-1.97-.35-4.14-.53-6.45-.53-3.33,0-6.2.57-8.53,1.69-2.34,1.13-4.14,2.66-5.34,4.55-1.2,1.89-1.81,4.01-1.81,6.28s.48,3.99,1.44,5.42c.94,1.41,2.2,2.58,3.75,3.47,1.51.87,3.18,1.59,4.96,2.12,1.75.53,3.54,1.01,5.3,1.44,1.74.42,3.36.89,4.81,1.38,1.4.48,2.53,1.08,3.37,1.79.76.65,1.13,1.48,1.13,2.56,0,1.51-.4,2.73-1.19,3.6-.81.9-1.94,1.55-3.36,1.92-1.48.39-3.18.59-5.07.59-2.42,0-4.6-.25-6.46-.74-1.88-.49-3.49-1.03-4.78-1.6-.42-.19-.88-.28-1.34-.28-.91,0-1.65.31-2.19.93-.52.59-.79,1.3-.79,2.1,0,.63.21,1.23.61,1.77.39.53.85.91,1.37,1.15,1.73.75,3.79,1.42,6.12,1.98,2.35.57,5.03.86,7.97.86,3.09,0,5.83-.51,8.13-1.5,2.32-1.01,4.15-2.44,5.43-4.25,1.29-1.82,1.94-3.9,1.94-6.19s-.48-4.24-1.43-5.71c-.94-1.45-2.21-2.63-3.76-3.51Z"/><path class="cls-3" d="m175.48,18.56c-.76,0-1.43.24-2,.72-.55.46-.95,1.06-1.17,1.79l-9.23,30.34-9.29-30.22c-.23-.78-.69-1.43-1.35-1.91-1.33-.96-3.15-.96-4.47,0-.67.48-1.12,1.13-1.35,1.9l-9.29,30.22-9.23-30.31c-.19-.74-.56-1.35-1.13-1.82-.57-.48-1.27-.72-2.06-.72-.89,0-1.65.3-2.27.89-.63.61-.93,1.38-.88,2.25,0,.29.06.66.2,1.17l11.42,35.09c.35,1.01.89,1.77,1.62,2.27,1.48,1.02,3.42,1,4.86-.14.73-.58,1.24-1.3,1.51-2.15l8.83-27.96,8.83,27.96c.27.85.77,1.57,1.51,2.15.74.59,1.58.88,2.49.88.85,0,1.65-.25,2.37-.74.72-.5,1.27-1.26,1.62-2.28l11.43-35.1c.13-.48.2-.86.19-1.08.1-.92-.18-1.7-.82-2.32-.62-.59-1.4-.89-2.33-.89Z"/><path class="cls-3" d="m213.3,18.56c-.9,0-1.67.32-2.28.97-.61.63-.92,1.41-.92,2.3v14.92h-20.92v-14.92c0-.9-.32-1.67-.96-2.31-.64-.64-1.41-.96-2.31-.96s-1.67.32-2.28.97c-.61.63-.92,1.41-.92,2.3v35.95c0,.9.31,1.66.93,2.28.62.62,1.38.93,2.28.93s1.66-.31,2.3-.92c.64-.62.97-1.38.97-2.28v-14.92h20.92v14.92c0,.9.31,1.66.93,2.28.62.62,1.38.93,2.28.93s1.66-.31,2.3-.92c.64-.62.97-1.38.97-2.28V21.82c0-.9-.32-1.67-.96-2.3-.63-.64-1.41-.96-2.31-.96Z"/><path class="cls-3" d="m230.41,18.56c-.9,0-1.67.32-2.28.97-.61.63-.92,1.41-.92,2.3v35.95c0,.9.31,1.66.93,2.28.62.62,1.38.93,2.28.93s1.66-.31,2.3-.92c.64-.62.97-1.38.97-2.28V21.82c0-.9-.32-1.67-.96-2.3-.63-.64-1.41-.96-2.31-.96Z"/><path class="cls-3" d="m269.79,18.85h-29.02c-.86,0-1.59.3-2.17.91-.57.6-.86,1.33-.86,2.18s.29,1.58.87,2.16,1.3.87,2.16.87h11.3v32.8c0,.9.31,1.66.93,2.28.62.62,1.38.93,2.28.93s1.66-.31,2.3-.92c.64-.62.97-1.38.97-2.28V24.97h11.25c.85,0,1.58-.29,2.18-.86.6-.58.91-1.31.91-2.17s-.3-1.59-.9-2.19c-.6-.6-1.33-.9-2.19-.9Z"/><path class="cls-3" d="m303.51,54.56h-20.1v-11.77h18c.85,0,1.59-.29,2.18-.86.6-.58.91-1.31.91-2.17s-.3-1.59-.9-2.19c-.6-.6-1.33-.9-2.19-.9h-18v-11.71h20.1c.85,0,1.58-.29,2.18-.86.6-.58.91-1.31.91-2.17s-.3-1.59-.9-2.19c-.6-.6-1.33-.9-2.19-.9h-23.37c-.9,0-1.67.32-2.28.97-.61.63-.92,1.41-.92,2.3v35.37c0,.9.31,1.66.93,2.28.62.62,1.38.93,2.28.93h23.37c.85,0,1.58-.29,2.18-.86.6-.58.91-1.31.91-2.17s-.3-1.59-.9-2.19c-.6-.6-1.33-.9-2.19-.9Z"/><path class="cls-2" d="m224.49,92.47c.36-.16.58-.15.66.02.08.18.06.4-.07.66-.2.39-.44.75-.74,1.08-.29.33-.62.64-.98.93-.75.69-1.38,1.25-1.89,1.69-.51.44-.93.79-1.27,1.05-.34.26-.63.47-.86.64-.23.16-.44.31-.64.44-.75.46-1.49.9-2.23,1.32-.73.42-1.43.74-2.08.93-1.01.29-2,.3-2.96.02-.96-.28-1.69-.86-2.18-1.74-.55-1.01-.78-2.18-.69-3.5.1-1.32.43-2.6,1-3.82.57-1.22,1.33-2.27,2.28-3.14.95-.87,1.99-1.33,3.14-1.4.36-.07.73.04,1.1.32.38.28.61.6.71.96.1.29.11.62.05.98-.07.36-.16.76-.27,1.2-.12.44-.24.92-.37,1.45s-.25,1.06-.34,1.62c-.07.2-.16.3-.27.32-.12.02-.22-.06-.32-.22-.36-.56-.58-1.09-.66-1.59-.08-.51-.17-.99-.27-1.45-.2,0-.45.19-.76.56-.31.38-.61.84-.91,1.4s-.54,1.15-.74,1.79c-.2.64-.29,1.2-.29,1.69,0,.65.1,1.14.29,1.47s.44.52.74.59.64.05,1.03-.05c.39-.1.78-.25,1.18-.44,1.73-.82,3.4-1.69,5-2.62,1.6-.93,3.14-1.99,4.61-3.16Z"/><path class="cls-2" d="m229.39,103.34c.16.33.38.5.66.51.28.02.55-.06.81-.22.98-.85,1.91-1.76,2.79-2.74.88-.98,1.72-1.96,2.52-2.94.8-.98,1.58-1.94,2.35-2.87.77-.93,1.51-1.77,2.23-2.52.26-.26.47-.32.61-.17s.17.37.07.66c-.46.75-.92,1.48-1.37,2.18-.46.7-.93,1.41-1.42,2.13-1.01,1.44-2.05,2.97-3.11,4.61-1.06,1.63-2.23,3.02-3.5,4.17-.78.72-1.63,1.13-2.55,1.23-.85-.03-1.65-.3-2.4-.81-.75-.51-1.19-1.18-1.32-2.03-.2-1.99-.16-4,.1-6.03.29-2.35.77-4.79,1.42-7.3s1.45-5.01,2.38-7.5c.93-2.48,1.95-4.9,3.06-7.25,1.11-2.35,2.27-4.54,3.48-6.57.56-.88,1.11-1.72,1.67-2.52.55-.8,1.14-1.54,1.76-2.23.23-.29.51-.51.86-.64.34-.13.69-.11,1.05.05.72.33,1.03.93.93,1.81-.23,1.93-.63,3.81-1.2,5.64s-1.27,3.59-2.08,5.29c-.82,1.7-1.73,3.33-2.74,4.9-1.01,1.57-2.09,3.05-3.23,4.46-.1.1-.17.21-.22.34-.05.13-.11.26-.17.39-.49,1.31-.97,2.74-1.45,4.31-.47,1.57-.88,3.1-1.23,4.58-.34,1.49-.59,2.87-.73,4.14-.15,1.27-.16,2.25-.02,2.94Zm12.05-34.69c-1.41,2.35-2.66,4.77-3.77,7.25s-2.22,4.97-3.33,7.45c.29-.29.66-.79,1.1-1.49.44-.7.91-1.5,1.4-2.4.49-.9.98-1.87,1.47-2.92.49-1.04.95-2.06,1.37-3.04.42-.98.8-1.9,1.13-2.77.33-.87.54-1.56.64-2.08Z"/><path class="cls-2" d="m254.57,91.83l.59-.59h.05v.1c.07.75,0,1.32-.2,1.69-.2.38-.29.58-.29.61-.33.49-.77,1.12-1.32,1.89-.56.77-1.14,1.55-1.74,2.35-.61.8-1.18,1.54-1.74,2.21s-1,1.15-1.32,1.45c-.39.46-.82.88-1.27,1.27-.16.13-.38.25-.66.34-.28.1-.56.17-.86.22-.29.05-.58.06-.86.02s-.5-.11-.66-.24c-.56-.36-.99-.79-1.3-1.3-.31-.51-.46-1.05-.46-1.64-.1-1.8.06-3.63.46-5.51.41-1.88.89-3.58,1.45-5.12.16-.46.39-.93.69-1.42.29-.29.64-.38,1.03-.25.39.13.74.4,1.05.81.31.41.54.91.69,1.49s.12,1.18-.07,1.76c-.16.56-.31,1.09-.44,1.59-.13.51-.28,1.04-.44,1.59-.07.26-.17.64-.32,1.13-.15.49-.3,1-.46,1.54-.16.54-.31,1.05-.44,1.54-.13.49-.21.87-.25,1.13-.07.49.07.62.39.39.33-.23.77-.62,1.32-1.18,1.34-1.37,2.61-2.7,3.82-3.99,1.21-1.29,2.4-2.59,3.58-3.9Zm-6.86-5.88c-.23.23-.39.23-.49,0-.42-.65-.7-1.34-.83-2.06-.13-.72-.07-1.44.2-2.16.13-.42.42-.78.86-1.05.44-.28.84-.37,1.2-.27.2.07.41.17.64.32s.38.32.44.51c.23.88.11,1.73-.37,2.55-.47.82-1.02,1.54-1.64,2.16Z"/><path class="cls-2" d="m257.76,100.6c-.13.26-.23.42-.29.49-.52.36-.88.26-1.08-.29-.07-.26-.11-.51-.15-.74-.03-.23-.05-.47-.05-.73-.03-.72-.03-1.44,0-2.16.1-.82.29-1.71.59-2.67.29-.96.64-1.92,1.05-2.87.41-.95.83-1.84,1.27-2.67.44-.83.86-1.51,1.25-2.03.2-.29.46-.46.81-.49.34-.03.68.05,1,.24.33.2.59.47.78.83.2.36.25.77.15,1.23-.03.03-.1.13-.2.29-.1.16-.2.34-.29.54-.1.2-.2.38-.29.56-.1.18-.16.29-.2.32.36-.26.72-.55,1.08-.88.36-.33.73-.64,1.1-.93.38-.29.76-.55,1.15-.76.39-.21.82-.32,1.27-.32.55,0,1.04.16,1.47.46.42.31.78.69,1.05,1.13.28.44.45.92.51,1.42.06.51.03.99-.1,1.45-.29.88-.7,1.74-1.22,2.57-.52.83-1.05,1.66-1.59,2.47s-1.04,1.64-1.49,2.47c-.46.83-.78,1.69-.98,2.57-.2.69-.2,1.11-.02,1.27s.42.2.71.1c.29-.1.6-.26.91-.49.31-.23.53-.39.66-.49,1.34-1.04,2.6-2.2,3.77-3.45s2.33-2.46,3.48-3.6c.98-.98,1.59-1.51,1.84-1.59.25-.08.28.08.1.49-.18.41-.47.96-.88,1.64-.41.69-.78,1.29-1.1,1.81-.39.65-.93,1.45-1.62,2.38-.69.93-1.45,1.83-2.28,2.7-.83.86-1.69,1.6-2.57,2.2s-1.7.91-2.45.91c-.56,0-1.05-.12-1.47-.37-.42-.24-.78-.55-1.08-.91s-.51-.77-.66-1.22c-.15-.46-.22-.92-.22-1.37,0-1.63.33-3.23,1-4.8.67-1.57,1.38-3.01,2.13-4.31.36-.69.46-1.16.29-1.42-.16-.26-.64-.21-1.42.15-.65.29-1.26.83-1.81,1.59-.56.77-1.07,1.6-1.54,2.5-.47.9-.91,1.79-1.3,2.67-.39.88-.75,1.58-1.08,2.11Z"/><path class="cls-2" d="m288.63,91.83l.59-.59h.05v.1c.07.75,0,1.32-.2,1.69-.2.38-.29.58-.29.61-.33.49-.77,1.12-1.32,1.89-.56.77-1.14,1.55-1.74,2.35-.61.8-1.18,1.54-1.74,2.21s-1,1.15-1.32,1.45c-.39.46-.82.88-1.27,1.27-.16.13-.38.25-.66.34-.28.1-.56.17-.86.22-.29.05-.58.06-.86.02s-.5-.11-.66-.24c-.56-.36-.99-.79-1.3-1.3-.31-.51-.46-1.05-.46-1.64-.1-1.8.06-3.63.46-5.51.41-1.88.89-3.58,1.45-5.12.16-.46.39-.93.69-1.42.29-.29.64-.38,1.03-.25.39.13.74.4,1.05.81.31.41.54.91.69,1.49s.12,1.18-.07,1.76c-.16.56-.31,1.09-.44,1.59-.13.51-.28,1.04-.44,1.59-.07.26-.17.64-.32,1.13-.15.49-.3,1-.46,1.54-.16.54-.31,1.05-.44,1.54-.13.49-.21.87-.25,1.13-.07.49.07.62.39.39.33-.23.77-.62,1.32-1.18,1.34-1.37,2.61-2.7,3.82-3.99,1.21-1.29,2.4-2.59,3.58-3.9Zm-6.86-5.88c-.23.23-.39.23-.49,0-.42-.65-.7-1.34-.83-2.06-.13-.72-.07-1.44.2-2.16.13-.42.42-.78.86-1.05.44-.28.84-.37,1.2-.27.2.07.41.17.64.32s.38.32.44.51c.23.88.11,1.73-.37,2.55-.47.82-1.02,1.54-1.64,2.16Z"/><path class="cls-2" d="m306.02,92.47c.36-.16.58-.15.66.02.08.18.06.4-.07.66-.2.39-.44.75-.74,1.08-.29.33-.62.64-.98.93-.75.69-1.38,1.25-1.89,1.69-.51.44-.93.79-1.27,1.05s-.63.47-.86.64c-.23.16-.44.31-.64.44-.75.46-1.5.9-2.23,1.32-.74.42-1.43.74-2.08.93-1.01.29-2,.3-2.96.02-.96-.28-1.69-.86-2.18-1.74-.56-1.01-.78-2.18-.69-3.5.1-1.32.43-2.6,1-3.82.57-1.22,1.33-2.27,2.28-3.14.95-.87,1.99-1.33,3.14-1.4.36-.07.73.04,1.1.32.38.28.61.6.71.96.1.29.11.62.05.98s-.16.76-.27,1.2c-.12.44-.24.92-.37,1.45-.13.52-.25,1.06-.34,1.62-.07.2-.16.3-.27.32-.12.02-.22-.06-.32-.22-.36-.56-.58-1.09-.66-1.59-.08-.51-.17-.99-.27-1.45-.2,0-.45.19-.76.56-.31.38-.61.84-.91,1.4s-.54,1.15-.74,1.79c-.2.64-.29,1.2-.29,1.69,0,.65.1,1.14.29,1.47.2.33.44.52.74.59s.64.05,1.03-.05c.39-.1.78-.25,1.18-.44,1.73-.82,3.4-1.69,5-2.62,1.6-.93,3.14-1.99,4.61-3.16Z"/></g></svg>